<?xml version="1.0" standalone="no"?>
<!DOCTYPE svg PUBLIC "-//W3C//DTD SVG 20010904//EN"
 "http://www.w3.org/TR/2001/REC-SVG-20010904/DTD/svg10.dtd">
<svg version="1.0" xmlns="http://www.w3.org/2000/svg"
 width="128.000000pt" height="128.000000pt" viewBox="0 0 128.000000 128.000000"
 preserveAspectRatio="xMidYMid meet">
<metadata>
Created by potrace 1.16, written by Peter Selinger 2001-2019
</metadata>
<g transform="translate(0.000000,128.000000) scale(0.100000,-0.100000)"
fill="#000000" stroke="none">
<path d="M0 640 l0 -640 640 0 640 0 0 640 0 640 -640 0 -640 0 0 -640z m329
98 c-1 -7 -1 -21 0 -31 1 -17 2 -17 17 -3 22 22 27 20 20 -8 -9 -36 8 -40 44
-10 38 32 97 40 147 19 22 -10 40 -12 47 -6 6 5 28 12 49 16 29 6 37 4 37 -8
0 -8 -10 -17 -22 -21 l-23 -6 23 -15 c38 -27 28 -53 -30 -80 -57 -27 -83 -31
-93 -15 -3 5 20 21 52 35 l57 26 -29 18 c-29 18 -31 18 -57 0 -14 -11 -33 -19
-41 -19 -8 0 -25 -11 -38 -25 -13 -13 -29 -25 -36 -25 -6 0 -14 -6 -16 -12 -3
-7 -4 -1 -3 14 2 15 8 33 14 40 15 19 32 65 25 71 -3 3 -29 -22 -59 -56 -29
-34 -63 -65 -75 -69 l-21 -8 20 33 c19 33 19 34 1 45 -16 10 -22 7 -43 -27
-14 -22 -30 -42 -35 -45 -16 -10 -23 12 -11 35 7 11 9 23 7 26 -12 12 -46 -10
-57 -37 -7 -16 -23 -37 -37 -46 -26 -16 -26 -16 -19 7 16 52 18 69 7 69 -6 0
-11 5 -11 10 0 6 9 10 20 10 12 0 29 15 45 40 27 43 51 45 41 4 -5 -19 -2 -24
12 -24 11 0 26 16 40 45 21 44 35 58 31 33z m742 -32 c35 -17 34 -39 -1 -60
-28 -16 -30 -20 -17 -34 8 -10 17 -23 21 -29 10 -18 -23 -5 -51 19 -18 17 -22
17 -30 5 -4 -8 -18 -20 -31 -26 -22 -12 -23 -11 -12 9 6 12 9 24 6 27 -3 3 4
17 14 31 25 31 26 51 3 47 -10 -2 -36 -7 -58 -10 l-40 -7 30 -13 c27 -11 28
-13 10 -20 -48 -17 -65 -25 -65 -33 0 -5 13 -7 29 -4 16 2 37 0 47 -6 14 -8 6
-12 -42 -23 -76 -17 -79 -17 -78 1 4 41 14 72 28 86 22 21 20 24 -14 24 -26 0
-33 -7 -60 -60 -17 -35 -37 -60 -46 -60 -17 0 -13 22 12 72 18 34 17 38 -2 38
-24 0 -11 24 17 31 45 11 305 8 330 -5z"/>
</g>
</svg>
